<svg width="64" height="64" viewBox="0 0 64 64" fill="none" xmlns="http://www.w3.org/2000/svg">
<path d="M35.8621 29.5625C36.7356 29.875 37.5862 30.2188 38.4138 30.5938C39.2414 30.9688 40.046 31.3958 40.8276 31.875C40.3218 32.375 39.8621 32.8958 39.4483 33.4375C39.0345 33.9792 38.6552 34.5625 38.3103 35.1875C36.5402 34.1458 34.6552 33.3542 32.6552 32.8125C30.6552 32.2708 28.5977 32 26.4828 32C24.4598 32 22.5057 32.2396 20.6207 32.7188C18.7356 33.1979 16.977 33.8646 15.3448 34.7188C13.7126 35.5729 12.2299 36.6146 10.8966 37.8438C9.56322 39.0729 8.41379 40.4271 7.44828 41.9062C6.48276 43.3854 5.73563 44.9792 5.2069 46.6875C4.67816 48.3958 4.41379 50.1667 4.41379 52H0C0 49.5 0.402299 47.0938 1.2069 44.7812C2.01149 42.4688 3.17241 40.3333 4.68966 38.375C6.2069 36.4167 8 34.6771 10.069 33.1562C12.1379 31.6354 14.4828 30.4375 17.1034 29.5625C14.5057 28.0208 12.4828 26.0833 11.0345 23.75C9.58621 21.4167 8.85057 18.8333 8.82759 16C8.82759 13.7917 9.28736 11.7188 10.2069 9.78125C11.1264 7.84375 12.3793 6.14583 13.9655 4.6875C15.5517 3.22917 17.4253 2.08333 19.5862 1.25C21.7471 0.416667 24.046 0 26.4828 0C28.9195 0 31.2069 0.416667 33.3448 1.25C35.4828 2.08333 37.3563 3.21875 38.9655 4.65625C40.5747 6.09375 41.8391 7.79167 42.7586 9.75C43.6782 11.7083 44.1379 13.7917 44.1379 16C44.1379 17.375 43.954 18.7188 43.5862 20.0312C43.2184 21.3438 42.6667 22.5833 41.931 23.75C41.1954 24.9167 40.3333 25.9896 39.3448 26.9688C38.3563 27.9479 37.1954 28.8125 35.8621 29.5625ZM13.2414 16C13.2414 17.6667 13.5862 19.2188 14.2759 20.6562C14.9655 22.0938 15.908 23.3646 17.1034 24.4688C18.2989 25.5729 19.7011 26.4375 21.3103 27.0625C22.9195 27.6875 24.6437 28 26.4828 28C28.2988 28 30.0115 27.6875 31.6207 27.0625C33.2299 26.4375 34.6322 25.5833 35.8276 24.5C37.023 23.4167 37.977 22.1458 38.6897 20.6875C39.4023 19.2292 39.7471 17.6667 39.7241 16C39.7241 14.3542 39.3793 12.8021 38.6897 11.3438C38 9.88542 37.0575 8.61458 35.8621 7.53125C34.6667 6.44792 33.2529 5.58333 31.6207 4.9375C29.9885 4.29167 28.2759 3.97917 26.4828 4C24.6437 4 22.931 4.3125 21.3448 4.9375C19.7586 5.5625 18.3563 6.41667 17.1379 7.5C15.9195 8.58333 14.9655 9.86458 14.2759 11.3438C13.5862 12.8229 13.2414 14.375 13.2414 16ZM64 42C64 43.0833 63.8161 44.1354 63.4483 45.1562C63.0805 46.1771 62.5287 47.125 61.7931 48V64L52.9655 60L44.1379 64V48C43.4253 47.125 42.8851 46.1771 42.5172 45.1562C42.1494 44.1354 41.954 43.0833 41.931 42C41.931 40.625 42.2184 39.3333 42.7931 38.125C43.3678 36.9167 44.1494 35.8646 45.1379 34.9688C46.1264 34.0729 47.2988 33.3542 48.6552 32.8125C50.0115 32.2708 51.4483 32 52.9655 32C54.4828 32 55.908 32.2604 57.2414 32.7812C58.5747 33.3021 59.7356 34.0208 60.7241 34.9375C61.7126 35.8542 62.5057 36.9167 63.1034 38.125C63.7011 39.3333 64 40.625 64 42ZM52.9655 36C52.046 36 51.1839 36.1562 50.3793 36.4688C49.5747 36.7812 48.8736 37.2083 48.2759 37.75C47.6782 38.2917 47.2069 38.9271 46.8621 39.6562C46.5172 40.3854 46.3448 41.1667 46.3448 42C46.3448 42.8333 46.5172 43.6146 46.8621 44.3438C47.2069 45.0729 47.6782 45.7083 48.2759 46.25C48.8736 46.7917 49.5747 47.2188 50.3793 47.5312C51.1839 47.8438 52.046 48 52.9655 48C53.8851 48 54.7471 47.8438 55.5517 47.5312C56.3563 47.2188 57.0575 46.7917 57.6552 46.25C58.2529 45.7083 58.7241 45.0729 59.069 44.3438C59.4138 43.6146 59.5862 42.8333 59.5862 42C59.5862 41.1667 59.4138 40.3854 59.069 39.6562C58.7241 38.9271 58.2529 38.2917 57.6552 37.75C57.0575 37.2083 56.3563 36.7812 55.5517 36.4688C54.7471 36.1562 53.8851 36 52.9655 36ZM57.3793 57.5312V51.1562C56 51.7188 54.5287 52 52.9655 52C51.4023 52 49.931 51.7188 48.5517 51.1562V57.5312C49.2874 57.1979 50.023 56.875 50.7586 56.5625C51.4943 56.25 52.2299 55.9062 52.9655 55.5312C53.7011 55.8854 54.4368 56.2188 55.1724 56.5312C55.908 56.8438 56.6437 57.1771 57.3793 57.5312Z" fill="#8D021F"/>
</svg>
