<svg width="64" height="64" viewBox="0 0 64 64" fill="none" xmlns="http://www.w3.org/2000/svg">
<path d="M4.57145 32C4.56501 25.1859 6.99461 18.6175 11.3796 13.5943C15.7645 8.57101 21.7854 5.45886 28.251 4.87355C34.7166 4.28823 41.156 6.27237 46.2951 10.4334C51.4342 14.5945 54.8986 20.6293 56.003 27.344C57.2769 28.1934 58.3648 29.3169 59.1948 30.6401C60.0248 31.9634 60.5782 33.4565 60.8183 35.0208C60.9097 34.0256 60.9524 33.0176 60.9524 32C60.9524 14.3264 47.3082 0 30.4762 0C13.6442 0 2.1536e-05 14.3264 2.1536e-05 32C-0.0047387 36.1985 0.779686 40.3566 2.30833 44.2362C3.83698 48.1157 6.07979 51.6403 8.90821 54.608C9.3391 55.0454 9.91637 55.2876 10.5157 55.2824C11.115 55.2773 11.6884 55.0251 12.1124 54.5804C12.5364 54.1356 12.777 53.5338 12.7825 52.9045C12.788 52.2752 12.5579 51.6688 12.1417 51.216C9.73738 48.6939 7.83097 45.6981 6.53187 42.4005C5.23277 39.103 4.56656 35.5685 4.57145 32ZM49.341 25.6448C48.4235 22.6488 46.8706 19.9105 44.7992 17.636C42.7277 15.3615 40.1918 13.6103 37.3823 12.5141C34.5728 11.4179 31.5631 11.0054 28.5797 11.3077C25.5964 11.6099 22.7173 12.619 20.1592 14.259C17.6012 15.899 15.4309 18.127 13.8118 20.7754C12.1927 23.4237 11.1671 26.4233 10.8122 29.5482C10.4572 32.6731 10.7822 35.8418 11.7626 38.8157C12.7431 41.7896 14.3534 44.4911 16.4724 46.7168C16.6849 46.9397 16.9372 47.1165 17.2148 47.2371C17.4923 47.3577 17.7898 47.4197 18.0902 47.4195C18.3906 47.4194 18.6881 47.3571 18.9655 47.2362C19.243 47.1154 19.4951 46.9383 19.7074 46.7152C19.9198 46.4921 20.0881 46.2272 20.203 45.9357C20.3178 45.6443 20.3768 45.3319 20.3767 45.0165C20.3765 44.701 20.3172 44.3887 20.2021 44.0974C20.0871 43.806 19.9184 43.5413 19.7059 43.3184C18.0764 41.6073 16.8377 39.5305 16.0831 37.2441C15.3284 34.9578 15.0775 32.5215 15.3492 30.1186C15.6209 27.7157 16.4081 25.4088 17.6516 23.3716C18.8951 21.3343 20.5625 19.6197 22.5282 18.3568C24.494 17.0939 26.707 16.3156 29.0006 16.0806C31.2943 15.8455 33.6088 16.1597 35.7701 16.9996C37.9313 17.8394 39.883 19.1831 41.4782 20.9294C43.0735 22.6757 44.2707 24.7792 44.9798 27.0816C46.3173 26.2737 47.8068 25.7822 49.344 25.6416L49.341 25.6448ZM22.8572 32C22.8572 29.8783 23.6599 27.8434 25.0887 26.3431C26.5176 24.8429 28.4555 24 30.4762 24C32.4969 24 34.4348 24.8429 35.8637 26.3431C37.2925 27.8434 38.0952 29.8783 38.0952 32C38.0952 34.1217 37.2925 36.1566 35.8637 37.6569C34.4348 39.1571 32.4969 40 30.4762 40C28.4555 40 26.5176 39.1571 25.0887 37.6569C23.6599 36.1566 22.8572 34.1217 22.8572 32ZM30.4762 28.8C29.6679 28.8 28.8927 29.1371 28.3212 29.7373C27.7497 30.3374 27.4286 31.1513 27.4286 32C27.4286 32.8487 27.7497 33.6626 28.3212 34.2627C28.8927 34.8629 29.6679 35.2 30.4762 35.2C31.2845 35.2 32.0597 34.8629 32.6312 34.2627C33.2027 33.6626 33.5238 32.8487 33.5238 32C33.5238 31.1513 33.2027 30.3374 32.6312 29.7373C32.0597 29.1371 31.2845 28.8 30.4762 28.8ZM57.9048 36.8C57.9048 38.9217 57.102 40.9566 55.6732 42.4569C54.2444 43.9571 52.3064 44.8 50.2857 44.8C48.265 44.8 46.3271 43.9571 44.8982 42.4569C43.4694 40.9566 42.6667 38.9217 42.6667 36.8C42.6667 34.6783 43.4694 32.6434 44.8982 31.1431C46.3271 29.6429 48.265 28.8 50.2857 28.8C52.3064 28.8 54.2444 29.6429 55.6732 31.1431C57.102 32.6434 57.9048 34.6783 57.9048 36.8ZM64 54C64 58.9792 60.0808 64 50.2857 64C40.4907 64 36.5714 58.9984 36.5714 54V53.6704C36.5714 50.5344 38.9912 48 41.9749 48H58.5966C61.5832 48 64 50.5376 64 53.6704V54Z" fill="#8D021F"/>
</svg>
