<svg width="64" height="64" viewBox="0 0 64 64" fill="none" xmlns="http://www.w3.org/2000/svg">
<path d="M0.866667 25.9625C-0.588889 23.7375 -0.166667 20.6125 1.81111 18.975L15.8778 7.3125C18.4667 5.1625 21.6111 4 24.8333 4H60.4444C62.4111 4 64 5.7875 64 8V16C64 18.2125 62.4111 20 60.4444 20H56.3556L51.3667 24.5C48.8444 26.775 45.7111 28 42.4778 28H24.8889C22.9222 28 21.3333 26.2125 21.3333 24C21.3333 21.7875 22.9222 20 24.8889 20H33.7778C34.7556 20 35.5556 19.1 35.5556 18C35.5556 16.9 34.7556 16 33.7778 16H20.3778L7.07778 27.025C5.1 28.6625 2.32222 28.1875 0.866667 25.9625ZM42.4889 20H42.5889H42.4889ZM63.1333 38.0375C64.5889 40.2625 64.1667 43.3875 62.1889 45.025L48.1222 56.6875C45.5222 58.8375 42.3889 60 39.1556 60H3.55556C1.58889 60 0 58.2125 0 56V48C0 45.7875 1.58889 44 3.55556 44H7.64444L12.6333 39.5C15.1556 37.225 18.2889 36 21.5222 36H39.1111C41.0778 36 42.6667 37.7875 42.6667 40C42.6667 42.2125 41.0778 44 39.1111 44H30.2222C29.2444 44 28.4444 44.9 28.4444 46C28.4444 47.1 29.2444 48 30.2222 48H43.6222L56.9222 36.975C58.9 35.3375 61.6778 35.8125 63.1333 38.0375ZM21.5111 44H21.4111H21.5111Z" fill="#8D021F"/>
</svg>
