<svg width="64" height="64" viewBox="0 0 64 64" fill="none" xmlns="http://www.w3.org/2000/svg">
<path d="M32.7225 2.25782C26.222 2.25782 20.8867 7.97032 20.8867 15.1523C20.8867 22.3342 26.222 28.0467 32.7226 28.0467C39.2235 28.0467 44.5626 22.3342 44.5626 15.1522C44.5626 7.97007 39.2235 2.25757 32.7226 2.25757L32.7225 2.25782ZM25.375 19.9568C27.0345 20.4156 28.6742 20.7126 30.2968 20.8593V23.2031C28.4626 23.0518 26.6138 22.7218 24.75 22.2068L25.375 19.9568ZM40.0468 19.9568L40.6601 22.2106C38.8536 22.7028 37.0251 23.0334 35.1758 23.1912V20.8514C36.8115 20.6986 38.4327 20.3967 40.0471 19.9569L40.0468 19.9568ZM20.0275 21.9179C10.614 28.2676 6.20197 37.5689 5.49222 49.4179H5.51947C5.47272 49.6348 5.44917 49.8561 5.44922 50.0779C5.44922 51.8039 6.84797 53.2029 8.57422 53.2029C8.60172 53.2029 8.62872 53.1998 8.65622 53.1992V53.2267L31.086 53.2264V37.8007C27.8885 38.4032 25.4335 41.3619 25.4335 45.6249V46.7929H12.887V44.4569H14.4767C14.9347 40.0597 17.792 34.7072 20.1446 31.7889L21.9608 33.2539C20.0086 35.6756 17.3855 40.9619 16.8477 44.4569H23.1565C23.6615 39.1969 27.5525 35.3476 32.309 35.3476C36.6815 35.3476 40.8906 38.9673 41.5471 44.4571H48.5158C47.8393 40.9189 45.1996 35.6671 43.2541 33.2539L45.0746 31.7893C47.4352 34.7173 50.28 40.0999 50.8948 44.4572H52.2152V46.7932H39.3241L39.2928 45.6564C39.1653 41.1994 36.3466 38.3772 33.4216 37.7971V53.2268H56.0037V53.1993C56.0312 53.2001 56.0582 53.2033 56.086 53.2033C57.8122 53.2033 59.211 51.8042 59.211 50.0783C59.211 49.8168 59.1777 49.5633 59.1172 49.3204C58.4215 37.7448 54.2395 28.6127 45.2382 22.2932C42.86 27.0876 38.1642 30.3832 32.7226 30.3832C27.1398 30.3832 22.3417 26.9157 20.0276 21.9182L20.0275 21.9179ZM17.5467 55.5624L18.6952 61.4999H46.2655L47.3242 55.5624H17.5467Z" fill="#8D021F"/>
</svg>
