<svg width="64" height="64" viewBox="0 0 64 64" fill="none" xmlns="http://www.w3.org/2000/svg">
<path d="M56.3002 33.4L55.1002 15.3L46.8002 20.4C42.7002 19.7 41.6002 19.7 38.4002 18.1C36.5002 17.2 34.1002 17.8 32.9002 18.5C31.1002 16.6 19.4002 19.4 18.1002 20C14.6002 19 9.4002 14.9 9.4002 14.9L7.7002 35.4L10.0002 36C10.2002 36.7 10.8002 38.4 10.8002 38.4C8.6002 41.2 11.2002 44.5 13.7002 43.4C12.6002 46.2 15.5002 48.8 17.8002 47C17.5002 49.6 20.2002 51.5 22.2002 49.7C21.3002 52.8 24.8002 55.1 26.9002 52.6C28.4002 53.6 29.8002 54.4 31.0002 54.8C33.1002 55.7 35.4002 53.7 35.0002 51.2C37.4002 54 41.0002 51.3 40.2002 48.2C42.9002 50.3 46.2002 46.8 44.5002 43.7C47.5002 45.4 50.1002 40.8 47.2002 37.8L56.3002 33.4Z" fill="#B47D56"/>
<path d="M13.9002 36.3C15.4002 37 16.4002 39.3 14.8002 41.3L14.1002 42.1C13.3002 43.1 12.5002 43.4 11.7002 43.4C12.3002 43.7 13.0002 43.7 13.7002 43.4C13.8002 43.1 14.0002 42.7 14.3002 42.4L15.0002 41.6C15.4002 41.1 15.9002 40.7 16.3002 40.5C17.1002 38.4 15.7002 36.4 13.9002 36.3ZM25.4002 46.2C27.0002 46.6 28.2002 48.7 27.0002 51L26.4002 51.9C25.8002 53 25.0002 53.5 24.2002 53.6C25.3002 53.9 26.5002 53.5 27.3002 52L27.9002 51.1C29.3002 48.3 27.4002 46 25.4002 46.2ZM18.3002 45.4L19.9002 42.9C19.8002 41.5 18.6002 40.3 17.4002 40.2C18.9002 40.9 19.9002 43.2 18.3002 45.2L17.6002 46C16.8002 47 16.0002 47.3 15.1002 47.3C15.9002 47.7 16.8002 47.6 17.7002 47C17.8002 46.5 18.0002 45.9 18.3002 45.4ZM22.6002 40.9C24.2002 41.4 25.3002 43.6 23.9002 45.8L22.0002 48.8C21.3002 49.9 20.5002 50.3 19.7002 50.3C20.7002 50.6 22.0002 50.3 22.9002 48.9L24.8002 45.9C26.4002 43.3 24.6002 40.8 22.6002 40.9ZM35.9002 43.4C36.0002 43.4 37.2002 43.2 37.6002 43.2C36.1002 41.7 33.7002 42.9 32.3002 42.1C33.3002 43.8 35.4002 43.4 35.6002 43.4L38.0002 46.5C40.0002 49 38.4002 51.9 36.3002 52.2C38.5002 52.9 40.7002 50.6 40.0002 48.1C39.9002 48 35.9002 43.4 35.9002 43.4ZM38.3002 37.6C38.3002 37.6 39.8002 37.3 41.1002 37.3C39.6002 36.1 37.3002 37.2 35.8002 36.2C36.4002 37.5 37.7002 37.5 38.1002 37.5L42.7002 42.8C44.8002 45.2 43.3002 48.1 41.2002 48.6C43.6002 49.3 45.9002 46.2 44.4002 43.5C43.4002 43.2 38.3002 37.6 38.3002 37.6Z" fill="#935E3E"/>
<path d="M35.1 49.1C33.6 47.9 31.5 48.8 30.6 48.2C31.1 49.6 33 49.3 33.1 49.3C34.8 51.9 33 54.6 30.9 54.8C33 55.7 35.3 53.7 34.9 51.2C34.8 51.1 33.4 49.3 33.4 49.3C33.6 49.2 34.7 49.1 35.1 49.1ZM55.2 31.7C55.2 31.7 53.5 35.2 46.9 37.1C46 36 44.1 33.8 41.9 31.9C43.3 31.6 44 30.5 45.1 30.3C44.7 29.9 43.3 30.1 42.2 30.5C40.2 31.2 35.6 28 35.6 28L31.8 28.5C29.1 31.1 23.3 32.5 23 28.5C22.8 25.7 28.9 23.8 30.8 22C33.2 19.7 35.3 16.8 39.2 18.8C42.4 20.4 43.7 20.3 48.1 21.1C49.6 21.4 50.6 22.1 51.7 23.6C50.8 21.5 49.5 20.6 47.9 20.3L54.9 17L55 15.3L46.7 20C42.9 19.4 41.5 19.4 38.4 17.9C36.4 16.9 34.8 17.2 33.5 18C31.1 16.6 29.7 16.9 28.8 17.1C26 18 21.5 18.1 17.5 19.7C18.2 19.9 18.9 20.1 19.4 20.1C23.3 18.9 27.4 19 29.3 18.3C29.9 18.1 31.1 18.1 32.4 18.8C31.6 19.5 30.9 20.3 30.1 21.1C28.2 22.9 22.4 25.5 22.8 28.8C23 30.4 25.2 34.6 32.5 29.9L35.6 29.5C35.6 29.5 41.3 32.2 46.6 38.4C48.7 40.8 47.4 43.4 45.3 44C48 44.5 50.3 40.7 47.7 38.1L54 34.7L55.2 31.7Z" fill="#935E3E"/>
<path d="M53.4002 16.3L56.7002 33.4L54.0002 34.6C52.6002 30.9 50.5002 22 51.0002 17.7L53.4002 16.3Z" fill="#8D021F"/>
<path d="M11.1001 38C10.6001 36.8 10.3001 35.2 10.3001 35.2L7.8001 33.5L7.6001 35.4L9.8001 36C10.1001 37 10.4001 37.8 10.8001 38.4L11.1001 38Z" fill="#935E3E"/>
<path d="M6.1001 35.1L11.5001 16.4L14.0001 18.1C14.4001 20.9 9.8001 33.7 8.1001 35.6L6.1001 35.1Z" fill="#8D021F"/>
<path d="M53.3 16.2C52.5 16.7 55.4 34 56.6 33.5C60.4 31.8 62.1 31.3 62.1 31.3V10.7C62 10.7 59.7 12.4 53.3 16.2ZM2 9V34.5C2 34.5 3.8 34.8 6.1 35.3C7.4 35.6 12.1 16.8 11.8 16.5C8.4 14.2 2 9 2 9Z" fill="#8D021F"/>
</svg>
