<svg width="63" height="64" viewBox="0 0 63 64" fill="none" xmlns="http://www.w3.org/2000/svg">
<path d="M23.3373 36.601H3.22314L13.2316 10.9001L23.3373 36.601ZM5.84673 34.7372H20.7137L13.2316 15.6087L5.84673 34.7372ZM59.776 36.601H39.6618L49.6703 10.9001L59.776 36.601ZM42.2854 34.7372H57.1524L49.6703 15.6087L42.2854 34.7372Z" fill="#D0D0D0"/>
<path d="M49.2815 10.6058C49.2815 10.6058 47.1438 9.82107 45.9777 9.3306C41.7994 7.56488 36.6494 5.50488 31.4994 5.50488C26.3494 5.50488 21.1994 7.66298 17.0211 9.42869C15.8551 9.91917 13.7173 10.7039 13.7173 10.7039L10.5107 13.1563C10.5107 13.1563 13.1343 14.8239 14.3975 14.3335C15.4664 13.9411 16.5353 13.4506 17.7985 12.9601C21.7824 11.2925 26.7381 9.2325 31.4994 9.2325C36.2607 9.2325 41.2164 11.2925 45.2004 12.9601C46.3664 13.4506 47.5324 13.9411 48.6013 14.3335C49.9617 14.8239 52.4881 13.1563 52.4881 13.1563L49.2815 10.6058Z" fill="#B8C2C4"/>
<path d="M2.34863 34.7372C2.34863 40.8191 7.20712 45.7239 13.2317 45.7239C19.2562 45.7239 24.1147 40.8191 24.1147 34.7372H2.34863ZM38.7873 34.7372C38.7873 40.8191 43.6458 45.7239 49.6703 45.7239C55.6949 45.7239 60.6505 40.8191 60.6505 34.7372H38.7873Z" fill="#8D021F"/>
<path d="M29.6533 12.6658H33.3456V53.0811H29.6533V12.6658Z" fill="#B8C2C4"/>
<path d="M28.5845 18.8458H34.5115V53.0811H28.5845V18.8458Z" fill="#D0D0D0"/>
<path d="M27.3213 36.6011H35.6774V55.9258H27.3213V36.6011Z" fill="#545B60"/>
<path d="M13.2313 17.2763C15.2705 17.2763 16.9236 15.6074 16.9236 13.5487C16.9236 11.49 15.2705 9.82104 13.2313 9.82104C11.1921 9.82104 9.53906 11.49 9.53906 13.5487C9.53906 15.6074 11.1921 17.2763 13.2313 17.2763Z" fill="#DBB471"/>
<path d="M49.767 17.2763C51.8061 17.2763 53.4592 15.6074 53.4592 13.5487C53.4592 11.49 51.8061 9.82104 49.767 9.82104C47.7278 9.82104 46.0747 11.49 46.0747 13.5487C46.0747 15.6074 47.7278 17.2763 49.767 17.2763Z" fill="#545B60"/>
<path d="M13.2313 17.2763C15.2705 17.2763 16.9236 15.6074 16.9236 13.5487C16.9236 11.49 15.2705 9.82104 13.2313 9.82104C11.1921 9.82104 9.53906 11.49 9.53906 13.5487C9.53906 15.6074 11.1921 17.2763 13.2313 17.2763Z" fill="#545B60"/>
<path d="M13.2314 15.4125C14.251 15.4125 15.0775 14.578 15.0775 13.5487C15.0775 12.5193 14.251 11.6849 13.2314 11.6849C12.2118 11.6849 11.3853 12.5193 11.3853 13.5487C11.3853 14.578 12.2118 15.4125 13.2314 15.4125Z" fill="white"/>
<path d="M49.767 15.4125C50.7866 15.4125 51.6132 14.578 51.6132 13.5487C51.6132 12.5193 50.7866 11.6849 49.767 11.6849C48.7474 11.6849 47.9209 12.5193 47.9209 13.5487C47.9209 14.578 48.7474 15.4125 49.767 15.4125Z" fill="white"/>
<path d="M31.4993 13.5487C34.5044 13.5487 36.9405 11.0892 36.9405 8.05535C36.9405 5.02146 34.5044 2.56201 31.4993 2.56201C28.4942 2.56201 26.0581 5.02146 26.0581 8.05535C26.0581 11.0892 28.4942 13.5487 31.4993 13.5487Z" fill="#D0D0D0"/>
<path d="M31.4998 44.8411C23.4347 44.8411 16.9243 48.9611 16.9243 54.062H46.0753C46.0753 48.9611 39.5649 44.8411 31.4998 44.8411Z" fill="#D0D0D0"/>
<path d="M15.0781 54.062H47.9215V57.7896H15.0781V54.062Z" fill="#545B60"/>
<path d="M11.4824 57.6915H51.5164V61.4191H11.4824V57.6915Z" fill="#6B767C"/>
</svg>
