<svg width="64" height="64" viewBox="0 0 64 64" fill="none" xmlns="http://www.w3.org/2000/svg">
<g clip-path="url(#clip0_136_1310)">
<path d="M6.09086 59.088C6.09353 61.6213 7.90153 63.76 10.4109 63.8666C13.9042 64.0133 17.4055 63.9253 20.9042 63.9253C23.4482 63.9253 25.6669 61.6186 25.5975 58.7146C25.5202 55.4586 25.6455 52.1946 25.6749 48.936L25.7949 35.6346C25.8029 34.8213 25.9175 34.6693 26.6882 34.4613C28.4372 33.9717 30.2785 33.9104 32.0562 34.2826C35.3362 34.9813 37.7335 37.5093 38.0855 40.8426C38.2615 42.496 38.2722 44.1733 38.2935 45.84C38.3602 50.2133 38.3949 54.5866 38.4375 58.9626C38.4642 61.8613 40.5602 63.968 43.4589 63.9813C46.5815 63.9973 49.7042 64.0026 52.8269 64C55.7762 63.9946 57.8802 61.9253 57.8882 58.9786C57.9069 49.9893 57.9069 41 57.9149 32.0106C57.9149 31.872 57.9149 31.7306 57.9015 31.5946C57.8215 30.648 57.4509 29.84 56.6135 29.36C56.0361 29.014 55.4119 28.7526 54.7602 28.584C52.2397 27.9756 49.6247 27.8641 47.0615 28.256C45.0802 28.5573 43.1255 29.0373 41.1602 29.4346C38.5735 29.9573 35.9709 30.1813 33.3362 29.9093C29.9549 29.5653 27.0162 28.1333 24.2642 26.2293C22.9606 25.3181 21.6321 24.4431 20.2802 23.6053C18.6269 22.592 16.7762 22.2586 14.8669 22.1546C12.8135 22.04 10.7709 21.9866 8.7522 22.4506C7.17886 22.8133 6.35486 23.728 6.1762 25.3226C6.13893 25.6582 6.12024 25.9956 6.1202 26.3333M25.6855 9.84264C25.691 8.55569 25.4428 7.28026 24.9554 6.0892C24.4679 4.89813 23.7506 3.81474 22.8444 2.90089C21.9382 1.98704 20.8609 1.26062 19.674 0.763106C18.4871 0.265595 17.2138 0.00673585 15.9269 0.00130788C14.6399 -0.00412009 13.3645 0.24399 12.1734 0.731471C10.9824 1.21895 9.89896 1.93626 8.98511 2.84243C8.07126 3.74861 7.34484 4.82591 6.84733 6.01282C6.34982 7.19974 6.09096 8.47302 6.08553 9.75997C6.07492 12.3591 7.09724 14.856 8.9276 16.7013C10.758 18.5467 13.2464 19.5894 15.8455 19.6C18.4447 19.6106 20.9415 18.5883 22.7869 16.7579C24.6322 14.9275 25.6749 12.4391 25.6855 9.83997V9.84264ZM47.9122 5.01597C45.3163 5.00392 42.8218 6.02285 40.9768 7.84891C39.1317 9.67496 38.087 12.1588 38.0722 14.7546C38.0634 16.0457 38.31 17.3257 38.7978 18.5211C39.2857 19.7165 40.0051 20.8036 40.9147 21.7199C41.8242 22.6361 42.906 23.3635 44.0978 23.8601C45.2896 24.3566 46.5678 24.6126 47.8589 24.6133C50.455 24.6147 52.9459 23.5868 54.7854 21.7548C56.6249 19.9227 57.663 17.4361 57.6722 14.84C57.6779 12.2436 56.6535 9.75093 54.8239 7.90876C52.9942 6.06659 50.5086 5.02531 47.9122 5.01331V5.01597Z" fill="#8D021F"/>
</g>
<defs>
<clipPath id="clip0_136_1310">
<rect width="64" height="64" fill="white"/>
</clipPath>
</defs>
</svg>
